<svg xmlns="http://www.w3.org/2000/svg" fill="currentColor" viewBox="0 0 24 24" width="24" height="24">
  <path d="M22.23 0H1.77C.79 0 0 .774 0 1.728v20.543C0 23.226.79 24 1.77 24h20.46c.98 0 1.77-.774 1.77-1.728V1.728C24 .774 23.21 0 22.23 0zM7.08 20.452H3.58V9.215h3.5v11.237zm-1.75-12.86c-1.118 0-2.04-.917-2.04-2.044 0-1.13.923-2.046 2.04-2.046s2.04.916 2.04 2.046c0 1.127-.923 2.044-2.04 2.044zm15.367 12.86h-3.5v-5.605c0-1.337-.027-3.062-1.863-3.062-1.863 0-2.148 1.456-2.148 2.963v5.704h-3.5V9.215h3.36v1.528h.048c.468-.888 1.608-1.823 3.307-1.823 3.54 0 4.195 2.331 4.195 5.36v6.172z"/>
</svg>
