<svg width="90" height="24" viewBox="0 0 90 24" fill="none" xmlns="http://www.w3.org/2000/svg">
<g clip-path="url(#clip0_1_11878)">
<path d="M6.67802 15.8506C5.74431 15.8506 5.15567 15.219 5.15567 14.2207V6.82513H8.48454V4.19694H5.15567L5.17597 0H2.63873L2.15158 4.19694H0V6.82513H2.09069V14.3022C2.09069 16.8693 3.71452 18.601 6.10968 18.601C6.82011 18.601 7.71321 18.4584 8.36275 18.2343L8.68751 18.1324V15.4228L8.07858 15.6061C7.63202 15.7691 7.00279 15.8506 6.67802 15.8506Z" fill="white"/>
<path d="M17.3547 3.93213C16.1368 3.93213 14.9393 4.46184 14.1274 5.27678V4.17661H11.1436V18.0917H14.2085V10.635C14.2085 8.33281 15.3452 6.78442 17.0503 6.78442C17.4765 6.78442 18.1869 6.86591 18.7959 7.13077L19.4454 7.416V4.46184L19.2018 4.3396C18.7147 4.07474 18.0246 3.93213 17.3547 3.93213Z" fill="white"/>
<path d="M27.5238 3.66724C23.2816 3.66724 20.1963 6.74364 20.1963 10.961C20.1963 15.382 23.3222 18.601 27.6253 18.601C30.67 18.601 33.1667 17.1749 34.283 14.7912L34.486 14.3837L31.9082 13.0798L31.6849 13.4873C30.9339 14.893 29.4115 15.7487 27.6659 15.7487C25.4738 15.7487 23.8296 14.4245 23.3831 12.326H34.7093L34.7499 11.8981C34.7702 11.5925 34.7702 11.2666 34.7702 11.0017C34.7702 6.76401 31.7255 3.66724 27.5238 3.66724ZM27.4224 6.5399C29.4318 6.5399 30.9745 7.68082 31.5022 9.51444H23.444C23.9311 7.68082 25.4535 6.5399 27.4224 6.5399Z" fill="white"/>
<path d="M43.9242 3.66724C39.682 3.66724 36.5967 6.74364 36.5967 10.961C36.5967 15.382 39.7226 18.601 44.0257 18.601C47.0704 18.601 49.5671 17.1749 50.6834 14.7912L50.8864 14.3837L48.3086 13.0798L48.0853 13.4873C47.3343 14.893 45.8119 15.7487 44.0663 15.7487C41.8741 15.7487 40.23 14.4245 39.7835 12.326H51.1097L51.1503 11.8981C51.1706 11.5925 51.1706 11.2666 51.1706 11.0017C51.1706 6.76401 48.1259 3.66724 43.9242 3.66724ZM43.8227 6.5399C45.8322 6.5399 47.3749 7.68082 47.9026 9.51444H39.8443C40.3315 7.68082 41.8538 6.5399 43.8227 6.5399Z" fill="white"/>
<path d="M61.2186 3.66724C59.3715 3.66724 57.8085 4.31919 56.7124 5.52123V4.17657H53.6475V24H56.7124V16.7878C57.8085 17.9694 59.3918 18.6214 61.2389 18.6214C65.2985 18.6214 68.3635 15.4024 68.3635 11.1443C68.3838 6.88625 65.2985 3.66724 61.2186 3.66724ZM65.3188 11.1239C65.3188 13.7521 63.4717 15.7487 60.9953 15.7487C58.519 15.7487 56.6516 13.7725 56.6516 11.1239C56.6516 8.49576 58.519 6.5399 60.9953 6.5399C63.492 6.5399 65.3188 8.47539 65.3188 11.1239Z" fill="white"/>
<path d="M80.3592 15.2395H87.7476V18.0918H74.3916L85.5555 4.19702H89.2497L80.3592 15.2395Z" fill="#FEBF43"/>
<g opacity="0.2">
<g opacity="0.2">
<mask id="mask0_1_11878" style="mask-type:alpha" maskUnits="userSpaceOnUse" x="78" y="15" width="10" height="4">
<g opacity="0.2">
<g opacity="0.2">
<path opacity="0.2" d="M87.748 15.2393H78.208V18.1119H87.748V15.2393Z" fill="url(#paint0_linear_1_11878)"/>
</g>
</g>
</mask>
<g mask="url(#mask0_1_11878)">
<path opacity="0.2" d="M87.748 15.2393H78.208V18.1119H87.748V15.2393Z" fill="url(#paint1_linear_1_11878)"/>
</g>
</g>
</g>
<path d="M78.0047 7.04931H70.6163V4.19702H83.9723L72.8085 18.0918H69.1143L78.0047 7.04931Z" fill="#FEBF43"/>
<g opacity="0.2">
<g opacity="0.2">
<mask id="mask1_1_11878" style="mask-type:alpha" maskUnits="userSpaceOnUse" x="70" y="4" width="11" height="4">
<g opacity="0.2">
<g opacity="0.2">
<path opacity="0.2" d="M80.1562 4.19702H70.6162V7.06969H80.1562V4.19702Z" fill="url(#paint2_linear_1_11878)"/>
</g>
</g>
</mask>
<g mask="url(#mask1_1_11878)">
<path opacity="0.2" d="M80.1562 4.19702H70.6162V7.06969H80.1562V4.19702Z" fill="url(#paint3_linear_1_11878)"/>
</g>
</g>
</g>
</g>
<defs>
<linearGradient id="paint0_linear_1_11878" x1="78.1899" y1="16.6695" x2="87.7229" y2="16.6695" gradientUnits="userSpaceOnUse">
<stop stop-color="white"/>
<stop offset="1"/>
</linearGradient>
<linearGradient id="paint1_linear_1_11878" x1="78.1899" y1="16.6695" x2="87.7229" y2="16.6695" gradientUnits="userSpaceOnUse">
<stop stop-color="#231F20"/>
<stop offset="1" stop-color="white"/>
</linearGradient>
<linearGradient id="paint2_linear_1_11878" x1="80.1783" y1="5.61447" x2="70.6406" y2="5.61447" gradientUnits="userSpaceOnUse">
<stop stop-color="white"/>
<stop offset="1"/>
</linearGradient>
<linearGradient id="paint3_linear_1_11878" x1="80.1783" y1="5.61447" x2="70.6406" y2="5.61447" gradientUnits="userSpaceOnUse">
<stop stop-color="#231F20"/>
<stop offset="1" stop-color="white"/>
</linearGradient>
<clipPath id="clip0_1_11878">
<rect width="89.25" height="24" fill="white"/>
</clipPath>
</defs>
</svg>
