<svg width="119" height="32" viewBox="0 0 119 32" fill="none" xmlns="http://www.w3.org/2000/svg">
<g clip-path="url(#clip0_68_735)">
<path d="M8.90403 21.1341C7.65909 21.1341 6.87423 20.292 6.87423 18.961V9.10017H11.3127V5.59593H6.87423L6.9013 0H3.51831L2.86877 5.59593H0V9.10017H2.78758V19.0696C2.78758 22.4924 4.95269 24.8014 8.14624 24.8014C9.09347 24.8014 10.2843 24.6112 11.1503 24.3124L11.5834 24.1766V20.5637L10.7714 20.8082C10.176 21.0255 9.33705 21.1341 8.90403 21.1341Z" fill="black"/>
<path d="M23.1397 5.24278C21.5158 5.24278 19.9191 5.94906 18.8365 7.03565V5.56876H14.8581V24.1222H18.9448V14.18C18.9448 11.1104 20.4604 9.04584 22.7337 9.04584C23.3021 9.04584 24.2493 9.1545 25.0612 9.50764L25.9273 9.88794V5.94906L25.6025 5.78608C24.953 5.43294 24.0328 5.24278 23.1397 5.24278Z" fill="black"/>
<path d="M36.6988 4.88962C31.0424 4.88962 26.9287 8.99149 26.9287 14.6146C26.9287 20.5093 31.0966 24.8013 36.8341 24.8013C40.8937 24.8013 44.2226 22.8998 45.7111 19.7215L45.9817 19.1782L42.5446 17.4397L42.2469 17.983C41.2455 19.8574 39.2157 20.9983 36.8882 20.9983C33.9653 20.9983 31.7732 19.2326 31.1778 16.4346H46.2794L46.3335 15.8642C46.3606 15.4567 46.3606 15.022 46.3606 14.6689C46.3606 9.01865 42.301 4.88962 36.6988 4.88962ZM36.5635 8.71984C39.2428 8.71984 41.2997 10.2411 42.0033 12.6859H31.259C31.9085 10.2411 33.9383 8.71984 36.5635 8.71984Z" fill="black"/>
<path d="M58.5657 4.88962C52.9093 4.88962 48.7956 8.99149 48.7956 14.6146C48.7956 20.5093 52.9635 24.8013 58.701 24.8013C62.7606 24.8013 66.0895 22.8998 67.578 19.7215L67.8486 19.1782L64.4115 17.4397L64.1138 17.983C63.1124 19.8574 61.0826 20.9983 58.7551 20.9983C55.8322 20.9983 53.6401 19.2326 53.0447 16.4346H68.1463L68.2004 15.8642C68.2275 15.4567 68.2275 15.022 68.2275 14.6689C68.2275 9.01865 64.1679 4.88962 58.5657 4.88962ZM58.4304 8.71984C61.1097 8.71984 63.1666 10.2411 63.8702 12.6859H53.1258C53.7754 10.2411 55.8052 8.71984 58.4304 8.71984Z" fill="black"/>
<path d="M81.6244 4.88962C79.1616 4.88962 77.0777 5.75889 75.6162 7.3616V5.56874H71.5296V32H75.6162V22.3837C77.0777 23.9592 79.1887 24.8285 81.6515 24.8285C87.0643 24.8285 91.1509 20.5365 91.1509 14.8591C91.178 9.18164 87.0643 4.88962 81.6244 4.88962ZM87.0913 14.8319C87.0913 18.3361 84.6285 20.9983 81.3267 20.9983C78.0249 20.9983 75.535 18.3633 75.535 14.8319C75.535 11.3276 78.0249 8.71984 81.3267 8.71984C84.6556 8.71984 87.0913 11.3005 87.0913 14.8319Z" fill="black"/>
<path d="M107.146 20.3191H116.997V24.1222H99.1888L114.074 5.59589H119L107.146 20.3191Z" fill="#F8B02B"/>
<g opacity="0.2">
<g opacity="0.2">
<mask id="mask0_68_735" style="mask-type:alpha" maskUnits="userSpaceOnUse" x="104" y="20" width="13" height="5">
<g opacity="0.2">
<g opacity="0.2">
<path opacity="0.2" d="M116.997 20.3192H104.277V24.1494H116.997V20.3192Z" fill="url(#paint0_linear_68_735)"/>
</g>
</g>
</mask>
<g mask="url(#mask0_68_735)">
<path opacity="0.2" d="M116.997 20.3192H104.277V24.1494H116.997V20.3192Z" fill="url(#paint1_linear_68_735)"/>
</g>
</g>
</g>
<path d="M104.006 9.39894H94.1552V5.59589H111.963L97.0781 24.1222H92.1525L104.006 9.39894Z" fill="#F8B02B"/>
<g opacity="0.2">
<g opacity="0.2">
<mask id="mask1_68_735" style="mask-type:alpha" maskUnits="userSpaceOnUse" x="94" y="5" width="13" height="5">
<g opacity="0.2">
<g opacity="0.2">
<path opacity="0.2" d="M106.875 5.59589H94.1553V9.42611H106.875V5.59589Z" fill="url(#paint2_linear_68_735)"/>
</g>
</g>
</mask>
<g mask="url(#mask1_68_735)">
<path opacity="0.2" d="M106.875 5.59589H94.1553V9.42611H106.875V5.59589Z" fill="url(#paint3_linear_68_735)"/>
</g>
</g>
</g>
</g>
<defs>
<linearGradient id="paint0_linear_68_735" x1="104.253" y1="22.2262" x2="116.964" y2="22.2262" gradientUnits="userSpaceOnUse">
<stop stop-color="white"/>
<stop offset="1"/>
</linearGradient>
<linearGradient id="paint1_linear_68_735" x1="104.253" y1="22.2262" x2="116.964" y2="22.2262" gradientUnits="userSpaceOnUse">
<stop stop-color="#231F20"/>
<stop offset="1" stop-color="white"/>
</linearGradient>
<linearGradient id="paint2_linear_68_735" x1="106.905" y1="7.48582" x2="94.1877" y2="7.48582" gradientUnits="userSpaceOnUse">
<stop stop-color="white"/>
<stop offset="1"/>
</linearGradient>
<linearGradient id="paint3_linear_68_735" x1="106.905" y1="7.48582" x2="94.1877" y2="7.48582" gradientUnits="userSpaceOnUse">
<stop stop-color="#231F20"/>
<stop offset="1" stop-color="white"/>
</linearGradient>
<clipPath id="clip0_68_735">
<rect width="119" height="32" fill="white"/>
</clipPath>
</defs>
</svg>
