<svg xmlns="http://www.w3.org/2000/svg" fill="currentColor" viewBox="0 0 24 24" width="24" height="24">
  <path d="M23.954 4.569c-.885.392-1.83.656-2.825.775 1.014-.611 1.794-1.574 2.163-2.724-.951.555-2.005.959-3.127 1.184-.896-.959-2.173-1.555-3.591-1.555-2.717 0-4.92 2.203-4.92 4.917 0 .39.045.765.127 1.124-4.09-.205-7.72-2.166-10.148-5.144-.423.722-.666 1.561-.666 2.475 0 1.708.87 3.213 2.188 4.096-.807-.026-1.566-.248-2.229-.616v.061c0 2.385 1.693 4.374 3.946 4.827-.413.111-.849.171-1.296.171-.314 0-.615-.03-.916-.086.631 1.953 2.445 3.377 4.6 3.417-1.68 1.316-3.809 2.101-6.102 2.101-.39 0-.779-.023-1.17-.067 2.189 1.392 4.768 2.205 7.557 2.205 9.054 0 14-7.496 14-13.986 0-.209 0-.423-.015-.637.961-.695 1.8-1.562 2.462-2.549z"/>
</svg>
